<svg width="197" height="208" viewBox="0 0 197 208" fill="none" xmlns="http://www.w3.org/2000/svg">
<path d="M59.7455 93.9247C62.3016 94.2901 64.8985 93.6228 66.9648 92.0698C69.0312 90.5167 70.3978 88.205 70.764 85.6433C71.1301 83.0816 70.4659 80.4796 68.9173 78.4099C67.3688 76.3401 65.0628 74.9721 62.5067 74.6067C59.9506 74.2413 57.3537 74.9086 55.2874 76.4617C53.221 78.0147 51.8544 80.3264 51.4883 82.8881C51.1221 85.4498 51.7863 88.0518 53.3349 90.1216C54.8834 92.1913 57.1894 93.5593 59.7455 93.9247ZM105.433 116.977C105.067 119.539 103.701 121.85 101.634 123.403C99.568 124.956 96.9711 125.624 94.415 125.258C91.8589 124.893 89.5529 123.525 88.0044 121.455C86.4559 119.385 85.7916 116.783 86.1578 114.222C86.5239 111.66 87.8905 109.348 89.9569 107.795C92.0233 106.242 94.6201 105.575 97.1762 105.94C99.7324 106.306 102.038 107.674 103.587 109.743C105.135 111.813 105.8 114.415 105.433 116.977ZM51.4746 152.157C54.0427 152.525 56.6517 151.854 58.7277 150.294C60.8038 148.733 62.1767 146.411 62.5446 143.837C62.9125 141.264 62.2451 138.649 60.6894 136.57C59.1336 134.49 56.8168 133.116 54.2487 132.749C51.6806 132.382 49.0716 133.052 46.9956 134.613C44.9195 136.173 43.5466 138.495 43.1787 141.069C42.8108 143.643 43.4782 146.257 45.0339 148.336C46.5897 150.416 48.9065 151.79 51.4746 152.157ZM23.9383 22.2713C25.9608 8.12204 39.2125 -2.20699 53.7173 0.78926C110.55 12.5124 158.07 39.0437 192.071 82.3666C201.723 94.6507 197.023 111.793 184.157 119.052C164.125 130.429 143.994 141.63 123.766 152.654L120.553 175.138C119.228 184.403 110.626 193.498 98.4419 191.756C96.2594 191.449 94.141 190.79 92.1688 189.804L92.0155 190.877C90.6986 200.09 82.0929 209.119 69.8828 207.373C60.1611 205.984 54.671 198.646 53.4361 191.178C45.6132 195.466 37.0663 200.125 29.4332 204.282C15.3075 211.98 -1.50197 200.255 0.771661 184.349L23.9383 22.2713ZM94.7786 171.454C94.3002 174.8 96.3693 178.274 100.289 178.834C104.221 179.396 107.183 176.629 107.659 173.295L111.342 147.529C111.488 146.511 111.873 145.541 112.464 144.7C113.055 143.859 113.837 143.169 114.744 142.688C125.846 136.812 144.833 126.221 161.656 116.772C131.669 78.6776 85.8059 52.0666 33.9542 44.2463L13.6651 186.192C13.4978 187.388 13.6648 188.607 14.1477 189.713C14.6306 190.819 15.4103 191.769 16.4001 192.457C17.3899 193.145 18.5511 193.544 19.7543 193.61C20.9575 193.676 22.1556 193.407 23.2153 192.831C34.4318 186.707 47.6585 179.5 57.5964 174.037C58.6571 173.454 59.8587 173.179 61.0665 173.241C62.2743 173.304 63.4406 173.703 64.4347 174.392C65.4288 175.082 66.2115 176.035 66.6951 177.146C67.1786 178.257 67.3439 179.481 67.1724 180.68L66.2415 187.193C65.7871 190.372 67.7825 193.901 71.7279 194.465C72.5697 194.606 73.4314 194.577 74.2619 194.379C75.0925 194.181 75.8751 193.817 76.5633 193.311C77.2515 192.804 77.8314 192.165 78.2687 191.43C78.706 190.695 78.9918 189.88 79.1091 189.032L81.8852 169.611C82.1301 167.897 83.0442 166.351 84.4264 165.312C85.8085 164.273 87.5456 163.827 89.2554 164.071C90.9651 164.316 92.5076 165.231 93.5434 166.615C94.5792 168 95.0235 169.74 94.7786 171.454ZM177.755 107.694C184.41 103.938 186.036 95.784 181.829 90.4226C150.029 49.9198 105.428 24.7815 51.0894 13.5598C44.4568 12.1898 37.8679 16.8652 36.8318 24.1143L35.8011 31.3246C91.5301 39.7254 141.016 68.6079 173.147 110.292L177.755 107.694Z" fill="#FDBA74"/>
</svg>
<svg width="170" height="196" viewBox="0 0 170 196" fill="none" xmlns="http://www.w3.org/2000/svg">
<path d="M47.3324 99.2862C48.8936 98.2521 49.9801 96.6401 50.3528 94.805C50.7255 92.9698 50.354 91.0618 49.3199 89.5006C48.2858 87.9394 46.6738 86.8529 44.8387 86.4802C43.0035 86.1075 41.0955 86.479 39.5343 87.5131C32.3055 92.296 28.6115 100.231 28.4629 108.905C28.3084 117.489 31.5768 126.811 38.0194 135.589C38.5578 136.361 39.2449 137.017 40.0405 137.519C40.8361 138.022 41.7241 138.36 42.6523 138.514C43.5805 138.669 44.5302 138.636 45.4455 138.418C46.3609 138.2 47.2234 137.801 47.9824 137.245C48.7415 136.689 49.3817 135.987 49.8655 135.18C50.3494 134.373 50.667 133.477 50.7997 132.546C50.9325 131.614 50.8777 130.666 50.6386 129.756C50.3995 128.846 49.981 127.992 49.4075 127.247C44.365 120.378 42.4937 114.004 42.5756 109.15C42.6599 104.377 44.5627 101.119 47.3289 99.2775L47.3324 99.2862ZM-5.98811 41.5859C-3.83288 47.9251 -0.395508 53.7526 4.10992 58.7055C8.61535 63.6585 14.0923 67.6307 20.1997 70.3748C12.8698 76.146 7.37237 83.9205 4.37436 92.7549C1.37635 101.589 1.00664 111.104 3.3101 120.144C8.8249 141.841 21.5684 161.011 39.4397 174.494L44.59 178.39C44.7828 178.532 44.9828 178.664 45.1889 178.786L64.3135 190.356C68.3652 192.809 72.9028 194.349 77.6104 194.87C82.318 195.391 87.0825 194.879 91.5721 193.37C96.0618 191.862 100.169 189.393 103.607 186.135C107.045 182.878 109.732 178.91 111.48 174.508C111.685 173.993 111.991 173.525 112.381 173.132C112.77 172.738 113.236 172.428 113.748 172.218C114.261 172.009 114.811 171.905 115.364 171.913C115.918 171.921 116.464 172.041 116.971 172.266C121.301 174.185 125.997 175.137 130.733 175.056C135.468 174.975 140.129 173.863 144.391 171.797C148.653 169.731 152.414 166.761 155.411 163.093C158.408 159.426 160.57 155.149 161.746 150.561L167.298 128.902C167.357 128.672 167.404 128.438 167.44 128.203L168.399 121.812C171.73 99.6759 167.419 77.0653 156.177 57.7075C152.863 52.0041 148.414 47.0417 143.105 43.1275C137.795 39.2132 131.739 36.4304 125.311 34.9514C118.882 33.4723 112.219 33.3285 105.733 34.5289C99.2465 35.7292 93.0758 38.2482 87.6025 41.9297L72.438 52.13L72.4118 52.1406C69.8969 45.2363 67.9702 37.4815 67.4973 30.3736C66.935 21.7768 68.5803 15.7967 71.8225 12.5811C73.1503 11.2594 73.8986 9.46439 73.9029 7.59093C73.9072 5.71746 73.167 3.91903 71.8453 2.59126C70.5236 1.2635 68.7286 0.515159 66.8551 0.510882C64.9816 0.506603 63.1832 1.24673 61.8554 2.56844C54.25 10.1388 52.744 21.3396 53.4053 31.2991L53.5099 32.7004C49.6699 29.43 45.3494 26.7703 40.7 24.8148C34.3322 22.136 27.468 20.8406 20.5618 21.0142C13.6557 21.1879 6.86524 22.8267 0.640104 25.8221C-2.20467 27.1797 -4.45225 29.5341 -5.67627 32.4389C-6.90029 35.3436 -7.01563 38.5966 -6.00039 41.5807L-5.98811 41.5859ZM7.75998 38.0756C12.0816 36.1632 16.7488 35.1552 21.4745 35.1137C26.2002 35.0723 30.8844 35.9981 35.2389 37.8343C39.5986 39.6582 43.5391 42.3548 46.8178 45.7583C50.0966 49.1617 52.6443 53.2 54.3042 57.6248C52.7412 58.3132 51.1298 58.8864 49.4831 59.3397L43.6504 60.4204C37.9168 60.9831 32.1335 60.1051 26.8253 57.866C22.4656 56.0421 18.5252 53.3455 15.2464 49.9421C11.9677 46.5386 9.41993 42.5003 7.75998 38.0756ZM43.7806 74.7559L45.6905 74.4029C48.0241 74.1412 50.3321 73.7172 52.5934 73.1291L61.7587 71.4194C68.3993 70.1871 74.7168 67.6068 80.3213 63.8377L95.4946 53.634C99.3647 51.0308 103.728 49.2498 108.314 48.4012C112.901 47.5527 117.612 47.6546 122.158 48.7008C126.703 49.7469 130.985 51.715 134.739 54.4832C138.493 57.2513 141.639 60.7606 143.981 64.7937C153.611 81.3783 157.301 100.749 154.444 119.712L153.542 125.745L148.079 147.052C147.413 149.653 146.188 152.077 144.489 154.156C142.79 156.235 140.658 157.918 138.242 159.089C135.826 160.26 133.183 160.89 130.499 160.935C127.815 160.98 125.153 160.44 122.698 159.351C120.455 158.355 118.033 157.823 115.579 157.787C113.125 157.75 110.688 158.21 108.416 159.138C106.144 160.066 104.082 161.443 102.355 163.188C100.628 164.932 99.2717 167.007 98.3665 169.289C97.3762 171.784 95.8538 174.034 93.9053 175.881C91.9568 177.728 89.6291 179.128 87.0843 179.984C84.5394 180.839 81.8387 181.129 79.1701 180.835C76.5016 180.54 73.9294 179.667 71.6328 178.276L52.8154 166.885L47.9482 163.209C32.6346 151.666 21.7115 135.25 16.9798 116.666C15.8295 112.147 15.6191 107.44 16.3613 102.836C17.1036 98.2323 18.7829 93.8298 21.2952 89.9012C23.8074 85.9726 27.0993 82.6014 30.967 79.9963C34.8346 77.3912 39.1958 75.6076 43.7806 74.7559Z" fill="#FDBA74"/>
</svg>
<svg width="209" height="242" viewBox="0 0 209 242" fill="none" xmlns="http://www.w3.org/2000/svg">
<path d="M62.3916 51.8207L69.8786 47.4025C78.1956 42.6007 89.0526 45.5098 93.9594 54.3398L94.0947 54.7397C98.1211 61.8793 104.745 66.5632 112.562 69.5064C123.26 73.4637 132.315 82.1931 136.478 94.7027C140.896 108.977 136.419 125.233 125.147 135.182C120.835 139.16 115.679 142.111 110.065 143.814C104.452 145.517 98.5252 145.928 92.73 145.017C86.9348 144.105 81.4208 141.894 76.601 138.55C71.7811 135.206 67.7801 130.815 64.8976 125.705C60.2311 117.788 58.7636 108.789 60.1013 100.177C61.4087 91.679 60.2199 82.9968 55.9976 75.6835C51.1655 67.4796 54.0746 56.6226 62.3916 51.8207ZM85.5271 155.476C72.2951 151.93 61.3315 143.538 54.6861 131.696C48.9514 121.432 46.7026 109.921 48.4283 98.5041C48.9981 95.0204 49.1621 90.337 47.5388 85.5383C38.2379 93.1069 31.1362 103.325 27.8029 115.766C22.8331 134.313 27.4866 153.136 38.6395 167.155L185.322 206.458L188.353 195.149C199.262 154.435 181.475 112.699 147.524 91.4804C153.346 110.011 147.454 131.099 132.98 143.948C120.145 155.66 102.265 159.96 85.5271 155.476ZM169.233 75.6003L183.596 79.4489C193.435 82.0853 200.182 91.287 196.879 103.614L194.637 111.983L208.773 115.771L211.804 104.462C216.349 87.4977 204.762 70.5746 187.233 65.8776L172.87 62.0291C163.483 59.5139 157.938 48.0886 160.484 38.5888C163.029 29.0889 172.938 24.2286 182.324 26.7438L186.082 12.7202C168.666 8.05344 150.884 18.3195 146.218 35.7359C141.551 53.1524 151.817 70.9336 169.233 75.6003ZM53.0032 44.3353C53.9848 43.3862 55.1926 42.4977 56.5135 41.6395L63.9702 37.3344C65.2607 36.5893 66.6038 36.1007 67.9469 35.612L56.334 15.1669C58.7355 12.5376 59.2307 8.42776 57.4396 5.15993C56.2425 3.14949 54.308 1.68568 52.0478 1.08008C49.7877 0.474481 47.3805 0.774928 45.3385 1.91747C43.331 3.07653 42.0242 4.78701 41.3656 6.79239C39.2996 6.36002 37.1649 6.63652 35.1573 7.79559C30.9988 10.1965 29.5443 15.625 31.9149 19.8966C33.8494 23.0817 37.543 24.6775 41.1339 23.9426L53.0032 44.3353ZM219.666 50.6891C226.98 46.4668 232.69 39.633 235.023 30.9248L220.886 27.1369C218.371 36.5237 208.333 42.319 198.946 39.8038L195.189 53.8275C216.224 59.4639 228.13 81.0784 222.493 102.114L215.13 129.596L229.153 133.353L236.517 105.872C239.217 96.0216 239.067 85.6078 236.084 75.8398C233.101 66.0718 227.408 57.3506 219.666 50.6891ZM17.8999 197.962L176.231 240.386C188.785 243.75 201.547 236.382 204.911 223.828L1.34178 169.282C-0.265616 175.281 0.575869 181.673 3.68111 187.051C6.78635 192.43 11.901 196.354 17.8999 197.962Z" fill="#FDBA74"/>
</svg>
