<svg width="130" height="130" viewBox="0 0 130 130" fill="none" xmlns="http://www.w3.org/2000/svg">
<path d="M91.9071 43.4026C91.9071 28.8497 82.8583 16.7175 71.3513 16.7175C59.8443 16.7175 50.8051 28.8497 50.8051 43.4026C49.9825 53.1141 54.9086 62.0124 63.1252 67.6766V121.87C63.1252 126.721 66.4252 129.955 71.3513 129.955C76.2774 129.955 79.5774 126.721 79.5774 121.87V67.6766C87.794 62.0124 92.7201 53.1141 91.9071 43.4026ZM81.7966 42.9721L80.2948 44.4742L71.0548 53.7265L60.313 42.9721C59.7063 42.3652 59.225 41.6447 58.8967 40.8518C58.5683 40.0588 58.3993 39.209 58.3993 38.3507C58.3993 37.4925 58.5683 36.6426 58.8967 35.8497C59.225 35.0568 59.7063 34.3363 60.313 33.7294C60.9197 33.1225 61.64 32.6411 62.4327 32.3127C63.2254 31.9842 64.075 31.8152 64.933 31.8152C65.791 31.8152 66.6406 31.9842 67.4333 32.3127C68.2261 32.6411 68.9463 33.1225 69.553 33.7294L71.0548 35.222L72.5661 33.7294C73.7914 32.5025 75.4538 31.8127 77.1875 31.8118C78.9213 31.8109 80.5843 32.499 81.8109 33.7246C83.0375 34.9503 83.7271 36.6131 83.728 38.3474C83.7289 40.0816 83.041 41.7452 81.8157 42.9721H81.7966ZM104.878 24.6685V73.1973H113.104V121.755C113.104 126.596 116.385 129.83 121.32 129.83C126.256 129.83 129.537 126.596 129.537 121.755V0.404114C115.61 0.404114 104.878 10.9098 104.878 24.6685ZM37.8442 20.7648C36.7867 20.8247 35.7872 21.2675 35.0321 22.0104C34.277 22.7534 33.818 23.7458 33.7407 24.8025V45.0292H25.5146V24.8025C25.546 24.2582 25.4609 23.7136 25.2649 23.2049C25.0689 22.6962 24.7665 22.2353 24.378 21.853C23.9895 21.4707 23.5238 21.1759 23.0121 20.9882C22.5004 20.8005 21.9546 20.7243 21.4111 20.7648C20.3526 20.8244 19.3518 21.2669 18.5952 22.0097C17.8385 22.7525 17.3775 23.745 17.298 24.8025V45.0292H9.08144V24.8025C9.11307 24.2574 9.02773 23.7118 8.83115 23.2024C8.63457 22.693 8.3313 22.2316 7.94171 21.8492C7.55212 21.4667 7.08523 21.1721 6.57239 20.9851C6.05955 20.798 5.51264 20.7229 4.96838 20.7648C3.90989 20.8244 2.90915 21.2669 2.15249 22.0097C1.39584 22.7525 0.934831 23.745 0.855316 24.8025V51.4972C0.905723 54.8914 2.18167 58.1529 4.44773 60.6799C6.7138 63.2068 9.81705 64.8287 13.1849 65.2463V121.87C13.1849 126.721 16.4754 129.955 21.4111 129.955C26.3467 129.955 29.6276 126.721 29.6276 121.87V65.2463C32.9963 64.8307 36.1007 63.2093 38.3672 60.6819C40.6336 58.1546 41.9089 54.892 41.9573 51.4972V24.8025C41.8777 23.745 41.4167 22.7525 40.6601 22.0097C39.9034 21.2669 38.9027 20.8244 37.8442 20.7648Z" fill="red"/>
</svg>