<svg width="224" height="224" viewBox="0 0 224 224" fill="none" xmlns="http://www.w3.org/2000/svg">
<path d="M41.2461 70.7762L47.3344 64.5708C54.1252 57.7799 65.3652 57.7799 72.3902 65.0391L72.6244 65.3903C78.3615 71.2445 85.9719 74.0545 94.2848 74.8741C105.642 75.9279 116.648 82.0162 123.907 93.022C131.869 105.667 131.751 122.527 123.439 135.055C120.303 140.013 116.087 144.198 111.105 147.296C106.123 150.394 100.505 152.325 94.6716 152.944C88.8379 153.564 82.9397 152.856 77.4185 150.873C71.8972 148.89 66.8961 145.684 62.7894 141.495C56.2327 135.055 52.4861 126.742 51.5494 118.078C50.6127 109.531 47.2173 101.452 41.2461 95.4808C34.4552 88.807 34.4552 77.567 41.2461 70.7762V70.7762ZM90.4211 164.911C76.7223 164.911 63.9602 159.642 54.4765 149.925C46.2806 141.495 41.129 130.957 39.8411 119.483C39.4898 115.97 38.4361 111.404 35.6261 107.189C28.6011 116.907 24.3861 128.615 24.3861 141.495C24.3861 160.696 33.7527 177.673 48.154 188.328H200.011V176.62C200.011 134.47 172.028 98.7591 133.742 87.0508C144.162 103.442 143.928 125.337 133.274 141.495C123.907 156.13 107.749 164.911 90.4211 164.911ZM150.602 66.0928H165.471C175.658 66.0928 184.556 73.2349 184.556 85.997V94.6612H199.191V82.9528C199.191 65.3903 183.619 52.0428 165.471 52.0428H150.602C140.884 52.0428 132.571 42.442 132.571 32.607C132.571 22.772 140.884 15.5128 150.602 15.5128V0.994511C132.571 0.994511 118.053 15.5128 118.053 33.5437C118.053 51.5745 132.571 66.0928 150.602 66.0928V66.0928ZM30.2402 65.9758C30.9427 64.8049 31.8794 63.6341 32.9331 62.4633L39.0215 56.3749C40.0752 55.3212 41.2461 54.5016 42.4169 53.682L25.9081 36.9391C27.5473 33.7778 26.9619 29.6799 24.3861 26.987C22.7094 25.3549 20.4619 24.4417 18.1221 24.4417C15.7822 24.4417 13.5348 25.3549 11.8581 26.987C10.219 28.6262 9.39939 30.6166 9.2823 32.7241C7.1748 32.8412 5.18439 33.6608 3.54522 35.2999C0.149803 38.6953 0.149803 44.3153 3.54522 47.8278C6.23814 50.4037 10.219 50.9891 13.4973 49.3499L30.2402 65.9758ZM192.869 28.9774C198.84 23.0062 202.587 14.9274 202.587 5.91201H187.951C187.951 15.6299 179.756 23.8258 170.038 23.8258V38.3441C191.815 38.3441 208.909 56.1408 208.909 77.9183V106.37H223.428V77.9183C223.486 67.7052 220.646 57.6851 215.237 49.022C209.827 40.3588 202.071 33.4082 192.869 28.9774V28.9774ZM36.0944 223.453H200.011C213.007 223.453 223.428 213.032 223.428 200.036H12.6777C12.6777 206.247 15.1448 212.203 19.5363 216.594C23.9278 220.986 29.8839 223.453 36.0944 223.453Z" fill="black"/>
</svg>
