<svg width="170" height="196" viewBox="0 0 170 196" fill="none" xmlns="http://www.w3.org/2000/svg">
<path d="M47.3324 99.2862C48.8936 98.2521 49.9801 96.6401 50.3528 94.805C50.7255 92.9698 50.354 91.0618 49.3199 89.5006C48.2858 87.9394 46.6738 86.8529 44.8387 86.4802C43.0035 86.1075 41.0955 86.479 39.5343 87.5131C32.3055 92.296 28.6115 100.231 28.4629 108.905C28.3084 117.489 31.5768 126.811 38.0194 135.589C38.5578 136.361 39.2449 137.017 40.0405 137.519C40.8361 138.022 41.7241 138.36 42.6523 138.514C43.5805 138.669 44.5302 138.636 45.4455 138.418C46.3609 138.2 47.2234 137.801 47.9824 137.245C48.7415 136.689 49.3817 135.987 49.8655 135.18C50.3494 134.373 50.667 133.477 50.7997 132.546C50.9325 131.614 50.8777 130.666 50.6386 129.756C50.3995 128.846 49.981 127.992 49.4075 127.247C44.365 120.378 42.4937 114.004 42.5756 109.15C42.6599 104.377 44.5627 101.119 47.3289 99.2775L47.3324 99.2862ZM-5.98811 41.5859C-3.83288 47.9251 -0.395508 53.7526 4.10992 58.7055C8.61535 63.6585 14.0923 67.6307 20.1997 70.3748C12.8698 76.146 7.37237 83.9205 4.37436 92.7549C1.37635 101.589 1.00664 111.104 3.3101 120.144C8.8249 141.841 21.5684 161.011 39.4397 174.494L44.59 178.39C44.7828 178.532 44.9828 178.664 45.1889 178.786L64.3135 190.356C68.3652 192.809 72.9028 194.349 77.6104 194.87C82.318 195.391 87.0825 194.879 91.5721 193.37C96.0618 191.862 100.169 189.393 103.607 186.135C107.045 182.878 109.732 178.91 111.48 174.508C111.685 173.993 111.991 173.525 112.381 173.132C112.77 172.738 113.236 172.428 113.748 172.218C114.261 172.009 114.811 171.905 115.364 171.913C115.918 171.921 116.464 172.041 116.971 172.266C121.301 174.185 125.997 175.137 130.733 175.056C135.468 174.975 140.129 173.863 144.391 171.797C148.653 169.731 152.414 166.761 155.411 163.093C158.408 159.426 160.57 155.149 161.746 150.561L167.298 128.902C167.357 128.672 167.404 128.438 167.44 128.203L168.399 121.812C171.73 99.6759 167.419 77.0653 156.177 57.7075C152.863 52.0041 148.414 47.0417 143.105 43.1275C137.795 39.2132 131.739 36.4304 125.311 34.9514C118.882 33.4723 112.219 33.3285 105.733 34.5289C99.2465 35.7292 93.0758 38.2482 87.6025 41.9297L72.438 52.13L72.4118 52.1406C69.8969 45.2363 67.9702 37.4815 67.4973 30.3736C66.935 21.7768 68.5803 15.7967 71.8225 12.5811C73.1503 11.2594 73.8986 9.46439 73.9029 7.59093C73.9072 5.71746 73.167 3.91903 71.8453 2.59126C70.5236 1.2635 68.7286 0.515159 66.8551 0.510882C64.9816 0.506603 63.1832 1.24673 61.8554 2.56844C54.25 10.1388 52.744 21.3396 53.4053 31.2991L53.5099 32.7004C49.6699 29.43 45.3494 26.7703 40.7 24.8148C34.3322 22.136 27.468 20.8406 20.5618 21.0142C13.6557 21.1879 6.86524 22.8267 0.640104 25.8221C-2.20467 27.1797 -4.45225 29.5341 -5.67627 32.4389C-6.90029 35.3436 -7.01563 38.5966 -6.00039 41.5807L-5.98811 41.5859ZM7.75998 38.0756C12.0816 36.1632 16.7488 35.1552 21.4745 35.1137C26.2002 35.0723 30.8844 35.9981 35.2389 37.8343C39.5986 39.6582 43.5391 42.3548 46.8178 45.7583C50.0966 49.1617 52.6443 53.2 54.3042 57.6248C52.7412 58.3132 51.1298 58.8864 49.4831 59.3397L43.6504 60.4204C37.9168 60.9831 32.1335 60.1051 26.8253 57.866C22.4656 56.0421 18.5252 53.3455 15.2464 49.9421C11.9677 46.5386 9.41993 42.5003 7.75998 38.0756ZM43.7806 74.7559L45.6905 74.4029C48.0241 74.1412 50.3321 73.7172 52.5934 73.1291L61.7587 71.4194C68.3993 70.1871 74.7168 67.6068 80.3213 63.8377L95.4946 53.634C99.3647 51.0308 103.728 49.2498 108.314 48.4012C112.901 47.5527 117.612 47.6546 122.158 48.7008C126.703 49.7469 130.985 51.715 134.739 54.4832C138.493 57.2513 141.639 60.7606 143.981 64.7937C153.611 81.3783 157.301 100.749 154.444 119.712L153.542 125.745L148.079 147.052C147.413 149.653 146.188 152.077 144.489 154.156C142.79 156.235 140.658 157.918 138.242 159.089C135.826 160.26 133.183 160.89 130.499 160.935C127.815 160.98 125.153 160.44 122.698 159.351C120.455 158.355 118.033 157.823 115.579 157.787C113.125 157.75 110.688 158.21 108.416 159.138C106.144 160.066 104.082 161.443 102.355 163.188C100.628 164.932 99.2717 167.007 98.3665 169.289C97.3762 171.784 95.8538 174.034 93.9053 175.881C91.9568 177.728 89.6291 179.128 87.0843 179.984C84.5394 180.839 81.8387 181.129 79.1701 180.835C76.5016 180.54 73.9294 179.667 71.6328 178.276L52.8154 166.885L47.9482 163.209C32.6346 151.666 21.7115 135.25 16.9798 116.666C15.8295 112.147 15.6191 107.44 16.3613 102.836C17.1036 98.2323 18.7829 93.8298 21.2952 89.9012C23.8074 85.9726 27.0993 82.6014 30.967 79.9963C34.8346 77.3912 39.1958 75.6076 43.7806 74.7559Z" fill="#FDBA74"/>
</svg>
