<svg width="223" height="223" viewBox="0 0 223 223" fill="none" xmlns="http://www.w3.org/2000/svg">
<path d="M40.2474 69.7817L46.3357 63.5763C53.1266 56.7854 64.3666 56.7854 71.3916 64.0446L71.6257 64.3958C77.3628 70.25 84.9732 73.06 93.2861 73.8796C104.643 74.9333 115.649 81.0217 122.908 92.0275C130.87 104.673 130.753 121.533 122.44 134.06C119.304 139.019 115.088 143.203 110.106 146.302C105.125 149.4 99.5066 151.331 93.6729 151.95C87.8392 152.569 81.941 151.861 76.4198 149.878C70.8986 147.895 65.8974 144.689 61.7907 140.5C55.2341 134.06 51.4874 125.748 50.5507 117.083C49.6141 108.536 46.2186 100.458 40.2474 94.4863C33.4566 87.8125 33.4566 76.5725 40.2474 69.7817V69.7817ZM89.4224 163.917C75.7236 163.917 62.9616 158.648 53.4778 148.93C45.282 140.5 40.1303 129.963 38.8424 118.488C38.4911 114.976 37.4374 110.41 34.6274 106.195C27.6024 115.913 23.3874 127.621 23.3874 140.5C23.3874 159.702 32.7541 176.679 47.1553 187.333H199.012V175.625C199.012 133.475 171.029 97.7646 132.743 86.0563C143.164 102.448 142.929 124.343 132.275 140.5C122.908 155.135 106.751 163.917 89.4224 163.917ZM149.603 65.0983H164.473C174.659 65.0983 183.557 72.2404 183.557 85.0025V93.6667H198.193V81.9583C198.193 64.3958 182.621 51.0483 164.473 51.0483H149.603C139.885 51.0483 131.572 41.4475 131.572 31.6125C131.572 21.7775 139.885 14.5183 149.603 14.5183V0C131.572 0 117.054 14.5183 117.054 32.5492C117.054 50.58 131.572 65.0983 149.603 65.0983V65.0983ZM29.2416 64.9813C29.9441 63.8104 30.8807 62.6396 31.9345 61.4688L38.0228 55.3804C39.0766 54.3267 40.2474 53.5071 41.4182 52.6875L24.9095 35.9446C26.5486 32.7833 25.9632 28.6854 23.3874 25.9925C21.7107 24.3604 19.4633 23.4472 17.1234 23.4472C14.7836 23.4472 12.5361 24.3604 10.8595 25.9925C9.22031 27.6317 8.40073 29.6221 8.28365 31.7296C6.17615 31.8467 4.18573 32.6662 2.54656 34.3054C-0.848854 37.7008 -0.848854 43.3208 2.54656 46.8333C5.23948 49.4092 9.22031 49.9946 12.4986 48.3554L29.2416 64.9813ZM191.87 27.9829C197.842 22.0117 201.588 13.9329 201.588 4.9175H186.953C186.953 14.6354 178.757 22.8313 169.039 22.8313V37.3496C190.817 37.3496 207.911 55.1462 207.911 76.9238V105.375H222.429V76.9238C222.488 66.7107 219.647 56.6906 214.238 48.0274C208.829 39.3643 201.072 32.4137 191.87 27.9829V27.9829ZM35.0957 222.458H199.012C212.009 222.458 222.429 212.038 222.429 199.042H11.6791C11.6791 205.252 14.1462 211.208 18.5376 215.6C22.9291 219.991 28.8852 222.458 35.0957 222.458Z" fill="#FDBA74"/>
</svg>
