<svg width="39" height="39" viewBox="0 0 39 39" fill="none" xmlns="http://www.w3.org/2000/svg">
<path d="M17.1877 19.25C17.1877 19.797 17.405 20.3216 17.7918 20.7084C18.1786 21.0952 18.7032 21.3125 19.2502 21.3125C19.7973 21.3125 20.3219 21.0952 20.7087 20.7084C21.0954 20.3216 21.3127 19.797 21.3127 19.25C21.3127 18.703 21.0954 18.1784 20.7087 17.7916C20.3219 17.4048 19.7973 17.1875 19.2502 17.1875C18.7032 17.1875 18.1786 17.4048 17.7918 17.7916C17.405 18.1784 17.1877 18.703 17.1877 19.25ZM25.7815 19.25C25.7815 19.797 25.9988 20.3216 26.3856 20.7084C26.7724 21.0952 27.297 21.3125 27.844 21.3125C28.391 21.3125 28.9156 21.0952 29.3024 20.7084C29.6892 20.3216 29.9065 19.797 29.9065 19.25C29.9065 18.703 29.6892 18.1784 29.3024 17.7916C28.9156 17.4048 28.391 17.1875 27.844 17.1875C27.297 17.1875 26.7724 17.4048 26.3856 17.7916C25.9988 18.1784 25.7815 18.703 25.7815 19.25ZM8.594 19.25C8.594 19.797 8.81129 20.3216 9.19809 20.7084C9.58488 21.0952 10.1095 21.3125 10.6565 21.3125C11.2035 21.3125 11.7281 21.0952 12.1149 20.7084C12.5017 20.3216 12.719 19.797 12.719 19.25C12.719 18.703 12.5017 18.1784 12.1149 17.7916C11.7281 17.4048 11.2035 17.1875 10.6565 17.1875C10.1095 17.1875 9.58488 17.4048 9.19809 17.7916C8.81129 18.1784 8.594 18.703 8.594 19.25ZM37.0049 11.7906C36.0338 9.4832 34.6417 7.41211 32.867 5.6332C31.1049 3.86459 29.0129 2.45877 26.7096 1.49531C24.3463 0.502734 21.837 0 19.2502 0H19.1643C16.5604 0.0128906 14.0381 0.528516 11.6663 1.54258C9.38272 2.51591 7.31036 3.92424 5.5647 5.68906C3.80728 7.46367 2.42798 9.52617 1.47407 11.825C0.485791 14.2055 -0.0126469 16.7363 0.000243773 19.3402C0.0148242 22.3243 0.720795 25.2644 2.06274 27.9297V34.4609C2.06274 34.9852 2.27099 35.4879 2.64167 35.8586C3.01234 36.2293 3.51509 36.4375 4.03931 36.4375H10.5749C13.2402 37.7794 16.1803 38.4854 19.1643 38.5H19.2545C21.8284 38.5 24.3249 38.0016 26.6752 37.0262C28.9669 36.0742 31.051 34.6848 32.8112 32.9355C34.5858 31.1781 35.9823 29.1242 36.9577 26.834C37.9717 24.4621 38.4874 21.9398 38.5002 19.3359C38.5131 16.7191 38.0061 14.1797 37.0049 11.7906ZM30.5124 30.6109C27.5002 33.593 23.5042 35.2344 19.2502 35.2344H19.1772C16.5862 35.2215 14.0124 34.577 11.7393 33.3652L11.3784 33.1719H5.32837V27.1219L5.13501 26.7609C3.92329 24.4879 3.27876 21.9141 3.26587 19.323C3.24868 15.0391 4.88579 11.0172 7.88931 7.98789C10.8885 4.95859 14.8975 3.28281 19.1815 3.26562H19.2545C21.403 3.26562 23.487 3.68242 25.4506 4.50742C27.367 5.31094 29.0858 6.4668 30.5639 7.94492C32.0377 9.41875 33.1979 11.1418 34.0014 13.0582C34.835 15.0434 35.2518 17.1488 35.2432 19.323C35.2174 23.6027 33.5374 27.6117 30.5124 30.6109Z" fill="#8A8A8A"/>
</svg>
