<svg width="39" height="39" viewBox="0 0 39 39" fill="none" xmlns="http://www.w3.org/2000/svg">
<path d="M27.2416 12.7784C27.2416 8.45351 24.5343 4.84804 21.0916 4.84804C17.6488 4.84804 14.9444 8.45351 14.9444 12.7784C14.6983 15.6644 16.1721 18.3088 18.6304 19.9921V36.0973C18.6304 37.5389 19.6177 38.5 21.0916 38.5C22.5654 38.5 23.5527 37.5389 23.5527 36.0973V19.9921C26.011 18.3088 27.4849 15.6644 27.2416 12.7784ZM24.2167 12.6504L23.7674 13.0968L21.0029 15.8464L17.789 12.6504C17.6075 12.4701 17.4635 12.2559 17.3653 12.0203C17.2671 11.7846 17.2165 11.5321 17.2165 11.277C17.2165 11.022 17.2671 10.7694 17.3653 10.5338C17.4635 10.2981 17.6075 10.084 17.789 9.90366C17.9706 9.7233 18.1861 9.58024 18.4232 9.48263C18.6604 9.38502 18.9146 9.33479 19.1713 9.33479C19.428 9.33479 19.6822 9.38502 19.9194 9.48263C20.1565 9.58024 20.372 9.7233 20.5536 9.90366L21.0029 10.3472L21.455 9.90366C21.8216 9.53904 22.319 9.33405 22.8377 9.33378C23.3564 9.33351 23.854 9.53799 24.221 9.90224C24.5879 10.2665 24.7943 10.7606 24.7945 11.276C24.7948 11.7914 24.589 12.2858 24.2224 12.6504H24.2167ZM31.1222 7.21093V21.6328H33.5834V36.0632C33.5834 37.502 34.565 38.463 36.0417 38.463C37.5184 38.463 38.5 37.502 38.5 36.0632V0C34.3332 0 31.1222 3.12208 31.1222 7.21093ZM11.0666 6.05081C10.7503 6.06862 10.4512 6.2002 10.2253 6.42099C9.99937 6.64179 9.86204 6.93672 9.83892 7.25074V13.2617H7.37776V7.25074C7.38718 7.089 7.36171 6.92713 7.30307 6.77597C7.24442 6.6248 7.15395 6.48783 7.0377 6.37422C6.92146 6.26061 6.78214 6.17298 6.62905 6.11721C6.47596 6.06143 6.31265 6.0388 6.15004 6.05081C5.83335 6.06854 5.53394 6.20002 5.30756 6.42077C5.08118 6.64151 4.94325 6.93647 4.91946 7.25074V13.2617H2.46116V7.25074C2.47062 7.08874 2.44509 6.92661 2.38628 6.77524C2.32746 6.62386 2.23673 6.48673 2.12017 6.37308C2.00361 6.25942 1.86392 6.17186 1.71048 6.11627C1.55705 6.06069 1.39342 6.03837 1.23058 6.05081C0.913894 6.06854 0.614483 6.20002 0.3881 6.42077C0.161717 6.64151 0.02379 6.93647 0 7.25074V15.1839C0.0150812 16.1926 0.39683 17.1619 1.07481 17.9128C1.75279 18.6638 2.68125 19.1458 3.68888 19.2699V36.0973C3.68888 37.5389 4.67335 38.5 6.15004 38.5C7.62674 38.5 8.60834 37.5389 8.60834 36.0973V19.2699C9.61621 19.1464 10.545 18.6645 11.2231 17.9135C11.9012 17.1624 12.2827 16.1928 12.2972 15.1839V7.25074C12.2734 6.93647 12.1355 6.64151 11.9091 6.42077C11.6827 6.20002 11.3833 6.06854 11.0666 6.05081Z" fill="#F97316"/>
</svg>
