<svg width="367" height="361" viewBox="0 0 367 361" fill="none" xmlns="http://www.w3.org/2000/svg">
<path d="M33.2775 232.138H322.349C326.252 232.138 330.164 232.215 334.067 232.138H334.574C334.954 232.138 335.319 231.987 335.588 231.718C335.857 231.449 336.009 231.084 336.009 230.703C336.009 230.323 335.857 229.958 335.588 229.688C335.319 229.419 334.954 229.268 334.574 229.268H45.5115C41.6089 229.268 37.6967 229.191 33.7941 229.268H33.2775C32.897 229.268 32.5321 229.419 32.263 229.688C31.9939 229.958 31.8428 230.323 31.8428 230.703C31.8428 231.084 31.9939 231.449 32.263 231.718C32.5321 231.987 32.897 232.138 33.2775 232.138Z" fill="#F97316"/>
<path d="M204.907 126.403C204.907 111.85 195.858 99.7175 184.351 99.7175C172.844 99.7175 163.805 111.85 163.805 126.403C162.983 136.114 167.909 145.012 176.125 150.677V204.87C176.125 209.721 179.425 212.955 184.351 212.955C189.277 212.955 192.577 209.721 192.577 204.87V150.677C200.794 145.012 205.72 136.114 204.907 126.403ZM194.797 125.972L193.295 127.474L184.055 136.726L173.313 125.972C172.706 125.365 172.225 124.645 171.897 123.852C171.568 123.059 171.399 122.209 171.399 121.351C171.399 120.492 171.568 119.643 171.897 118.85C172.225 118.057 172.706 117.336 173.313 116.729C173.92 116.123 174.64 115.641 175.433 115.313C176.225 114.984 177.075 114.815 177.933 114.815C178.791 114.815 179.641 114.984 180.433 115.313C181.226 115.641 181.946 116.123 182.553 116.729L184.055 118.222L185.566 116.729C186.791 115.502 188.454 114.813 190.188 114.812C191.921 114.811 193.584 115.499 194.811 116.725C196.037 117.95 196.727 119.613 196.728 121.347C196.729 123.082 196.041 124.745 194.816 125.972H194.797ZM217.878 107.669V156.197H226.104V204.755C226.104 209.596 229.385 212.83 234.32 212.83C239.256 212.83 242.537 209.596 242.537 204.755V83.4041C228.61 83.4041 217.878 93.9098 217.878 107.669ZM150.844 103.765C149.787 103.825 148.787 104.267 148.032 105.01C147.277 105.753 146.818 106.746 146.741 107.802V128.029H138.515V107.802C138.546 107.258 138.461 106.714 138.265 106.205C138.069 105.696 137.766 105.235 137.378 104.853C136.989 104.471 136.524 104.176 136.012 103.988C135.5 103.801 134.955 103.724 134.411 103.765C133.353 103.824 132.352 104.267 131.595 105.01C130.839 105.752 130.378 106.745 130.298 107.802V128.029H122.081V107.802C122.113 107.257 122.028 106.712 121.831 106.202C121.635 105.693 121.331 105.232 120.942 104.849C120.552 104.467 120.085 104.172 119.572 103.985C119.06 103.798 118.513 103.723 117.968 103.765C116.91 103.824 115.909 104.267 115.152 105.01C114.396 105.752 113.935 106.745 113.855 107.802V134.497C113.906 137.891 115.182 141.153 117.448 143.68C119.714 146.207 122.817 147.829 126.185 148.246V204.87C126.185 209.721 129.475 212.955 134.411 212.955C139.347 212.955 142.628 209.721 142.628 204.87V148.246C145.996 147.831 149.101 146.209 151.367 143.682C153.634 141.155 154.909 137.892 154.957 134.497V107.802C154.878 106.745 154.417 105.752 153.66 105.01C152.903 104.267 151.903 103.824 150.844 103.765Z" fill="#F97316"/>
<path d="M41.8002 277.596C41.6812 277.602 41.5623 277.584 41.4504 277.543C41.3386 277.502 41.2363 277.439 41.1498 277.357C41.0682 277.272 41.0049 277.171 40.9638 277.061C40.9227 276.951 40.9046 276.833 40.9106 276.716V250.318C40.8963 250.065 40.9823 249.818 41.1498 249.629C41.2363 249.547 41.3386 249.483 41.4504 249.442C41.5623 249.401 41.6812 249.383 41.8002 249.389H57.3916C57.522 249.368 57.6558 249.378 57.7816 249.418C57.9075 249.459 58.022 249.529 58.1155 249.622C58.209 249.716 58.2788 249.83 58.3193 249.956C58.3597 250.082 58.3696 250.216 58.3481 250.346V250.949C58.3541 251.067 58.336 251.184 58.2949 251.294C58.2538 251.405 58.1905 251.505 58.109 251.59C57.9239 251.759 57.68 251.848 57.4298 251.839H43.4454V262.679H56.5403C56.6707 262.658 56.8044 262.668 56.9303 262.708C57.0562 262.749 57.1706 262.819 57.2641 262.912C57.3576 263.006 57.4275 263.12 57.468 263.246C57.5084 263.372 57.5183 263.506 57.4968 263.636V264.239C57.5028 264.357 57.4847 264.474 57.4436 264.584C57.4025 264.695 57.3392 264.795 57.2577 264.88C57.0687 265.048 56.8211 265.134 56.569 265.119H43.4454V276.773C43.4515 276.891 43.4334 277.008 43.3922 277.118C43.3511 277.229 43.2878 277.329 43.2063 277.414C43.0173 277.582 42.7697 277.668 42.5176 277.653L41.8002 277.596Z" fill="#F97316"/>
<path d="M80.2334 278.007C78.2717 278.063 76.3247 277.653 74.5517 276.811C72.9855 276.018 71.7247 274.73 70.9647 273.147C70.0644 271.18 69.5979 269.043 69.5969 266.88C69.5969 265.674 69.5969 264.545 69.5969 263.493C69.5969 262.44 69.5969 261.321 69.5969 260.106C69.5969 257.948 70.0945 255.82 71.0508 253.886C71.8624 252.301 73.1502 251.009 74.7334 250.193C76.4582 249.399 78.3346 248.988 80.2334 248.988C82.1323 248.988 84.0086 249.399 85.7334 250.193C87.3186 251.016 88.6138 252.305 89.4448 253.886C90.4084 255.816 90.897 257.949 90.87 260.106C90.9274 261.318 90.9561 262.447 90.9561 263.493C90.9561 264.539 90.9274 265.668 90.87 266.88C90.8933 269.043 90.4325 271.185 89.5213 273.147C88.7511 274.729 87.4847 276.016 85.9152 276.811C84.1422 277.653 82.1952 278.063 80.2334 278.007ZM80.2334 275.587C82.3483 275.676 84.4122 274.922 85.9726 273.491C87.4648 272.094 88.2682 269.817 88.3735 266.679C88.4213 265.473 88.45 264.411 88.45 263.493C88.45 262.574 88.45 261.522 88.3735 260.307C88.3909 258.535 87.998 256.782 87.2256 255.188C86.589 253.957 85.5864 252.954 84.3561 252.317C83.0822 251.695 81.6794 251.384 80.2621 251.408C78.8606 251.387 77.4739 251.699 76.216 252.317C74.9857 252.954 73.9831 253.957 73.3464 255.188C72.5649 256.781 72.1561 258.532 72.1508 260.307C72.1508 261.522 72.1508 262.584 72.1508 263.493C72.1508 264.402 72.1508 265.473 72.1508 266.679C72.2656 269.817 73.1073 272.094 74.5708 273.491C76.1176 274.891 78.149 275.632 80.2334 275.558V275.587Z" fill="#F97316"/>
<path d="M113.913 278.007C111.951 278.063 110.004 277.653 108.231 276.811C106.67 276.014 105.413 274.727 104.654 273.147C103.75 271.181 103.28 269.043 103.276 266.88C103.276 265.674 103.276 264.545 103.276 263.493C103.276 262.44 103.276 261.321 103.276 260.106C103.276 257.948 103.774 255.82 104.73 253.886C105.546 252.304 106.833 251.014 108.413 250.193C110.138 249.399 112.014 248.988 113.913 248.988C115.812 248.988 117.688 249.399 119.413 250.193C121.003 251.009 122.3 252.3 123.124 253.886C124.093 255.814 124.582 257.948 124.549 260.106C124.607 261.318 124.635 262.447 124.635 263.493C124.635 264.539 124.607 265.668 124.549 266.88C124.582 269.044 124.121 271.188 123.201 273.147C122.43 274.729 121.164 276.016 119.594 276.811C117.822 277.655 115.875 278.065 113.913 278.007ZM113.913 275.587C116.028 275.677 118.092 274.923 119.652 273.491C121.144 272.094 121.948 269.817 122.053 266.679C122.11 265.473 122.129 264.411 122.129 263.493C122.129 262.574 122.129 261.522 122.053 260.307C122.07 258.535 121.677 256.782 120.905 255.188C120.268 253.957 119.266 252.954 118.035 252.317C116.762 251.695 115.359 251.384 113.941 251.408C112.54 251.387 111.153 251.699 109.895 252.317C108.665 252.954 107.662 253.957 107.026 255.188C106.248 256.782 105.842 258.532 105.84 260.307C105.84 261.522 105.84 262.584 105.84 263.493C105.84 264.402 105.84 265.473 105.84 266.679C105.945 269.817 106.796 272.094 108.25 273.491C109.799 274.887 111.829 275.628 113.913 275.558V275.587Z" fill="#F97316"/>
<path d="M138.935 277.596C138.818 277.604 138.699 277.588 138.589 277.546C138.478 277.505 138.378 277.441 138.294 277.357C138.211 277.274 138.146 277.173 138.105 277.062C138.064 276.952 138.047 276.833 138.055 276.716V250.318C138.041 250.065 138.127 249.818 138.295 249.629C138.379 249.547 138.48 249.484 138.59 249.443C138.7 249.402 138.818 249.383 138.935 249.389H147.544C149.842 249.278 152.135 249.704 154.24 250.633C155.792 251.413 157.013 252.724 157.683 254.327C158.417 256.22 158.777 258.238 158.745 260.268C158.745 261.483 158.745 262.545 158.745 263.474C158.745 264.402 158.745 265.473 158.745 266.679C158.766 268.769 158.399 270.845 157.664 272.802C157.018 274.381 155.812 275.665 154.278 276.41C152.218 277.295 149.984 277.701 147.745 277.596H138.935ZM140.59 275.185H147.515C149.258 275.262 150.996 274.965 152.614 274.314C153.838 273.769 154.805 272.771 155.311 271.53C155.927 269.918 156.222 268.202 156.182 266.478C156.182 265.674 156.182 264.966 156.182 264.363V262.565C156.182 261.981 156.182 261.273 156.182 260.469C156.124 257.513 155.445 255.331 154.125 253.925C152.805 252.518 150.538 251.81 147.315 251.81H140.619L140.59 275.185Z" fill="#F97316"/>
<path d="M173.265 277.596C173.02 277.605 172.78 277.52 172.596 277.357C172.509 277.275 172.441 277.175 172.397 277.064C172.352 276.954 172.332 276.835 172.337 276.716V250.318C172.329 250.191 172.348 250.064 172.393 249.946C172.437 249.827 172.506 249.719 172.596 249.629C172.78 249.466 173.02 249.38 173.265 249.389H174.27C174.378 249.381 174.488 249.395 174.591 249.429C174.694 249.464 174.79 249.519 174.872 249.59C174.978 249.68 175.062 249.791 175.121 249.916L184.265 267.722L193.448 249.916C193.529 249.801 193.618 249.692 193.716 249.59C193.793 249.517 193.885 249.461 193.986 249.427C194.086 249.392 194.193 249.379 194.299 249.389H195.256C195.379 249.38 195.504 249.396 195.621 249.437C195.737 249.478 195.845 249.544 195.935 249.629C196.019 249.722 196.085 249.83 196.128 249.948C196.17 250.067 196.189 250.192 196.184 250.318V276.716C196.188 276.834 196.169 276.952 196.126 277.062C196.083 277.172 196.018 277.273 195.935 277.357C195.845 277.442 195.737 277.507 195.621 277.548C195.504 277.589 195.379 277.606 195.256 277.596H194.529C194.411 277.603 194.293 277.586 194.183 277.544C194.073 277.503 193.972 277.439 193.888 277.357C193.805 277.273 193.74 277.172 193.697 277.062C193.654 276.952 193.634 276.834 193.639 276.716V254.872L185.987 270.028C185.897 270.272 185.733 270.483 185.518 270.63C185.283 270.774 185.01 270.844 184.734 270.831H183.854C183.584 270.847 183.316 270.777 183.089 270.63C182.878 270.473 182.71 270.266 182.601 270.028L174.901 254.872V276.716C174.909 276.833 174.892 276.952 174.851 277.062C174.81 277.173 174.746 277.274 174.662 277.357C174.579 277.441 174.478 277.505 174.367 277.546C174.257 277.588 174.139 277.604 174.021 277.596H173.265Z" fill="#F97316"/>
<path d="M208.762 277.596C208.55 277.593 208.347 277.508 208.196 277.358C208.046 277.208 207.961 277.005 207.958 276.792C207.958 276.642 207.984 276.493 208.035 276.352L218.231 250.193C218.315 249.958 218.46 249.75 218.652 249.59C218.872 249.443 219.134 249.372 219.398 249.389H220.766C221.03 249.372 221.293 249.443 221.512 249.59C221.704 249.75 221.85 249.958 221.933 250.193L232.13 276.352C232.181 276.493 232.207 276.642 232.206 276.792C232.204 277.005 232.118 277.208 231.968 277.358C231.818 277.508 231.615 277.593 231.403 277.596H230.599C230.489 277.606 230.378 277.591 230.274 277.553C230.169 277.515 230.075 277.455 229.997 277.376C229.886 277.26 229.79 277.132 229.71 276.993L227.213 270.544H212.951L210.436 276.993C210.382 277.142 210.289 277.274 210.168 277.376C210.085 277.454 209.987 277.514 209.88 277.552C209.773 277.59 209.659 277.605 209.546 277.596H208.762ZM213.918 268.133H226.247L220.087 252.25L213.918 268.133Z" fill="#F97316"/>
<path d="M248.008 277.596C247.89 277.606 247.77 277.59 247.659 277.549C247.547 277.509 247.445 277.445 247.36 277.361C247.276 277.277 247.21 277.176 247.169 277.065C247.127 276.953 247.11 276.834 247.119 276.716V251.839H239.132C239.012 251.843 238.893 251.824 238.781 251.781C238.669 251.738 238.567 251.673 238.481 251.59C238.32 251.416 238.234 251.186 238.242 250.949V250.346C238.228 250.094 238.314 249.846 238.481 249.657C238.568 249.576 238.67 249.512 238.782 249.471C238.894 249.43 239.013 249.412 239.132 249.418H257.593C257.845 249.404 258.092 249.49 258.281 249.657C258.449 249.846 258.535 250.094 258.52 250.346V250.949C258.528 251.186 258.442 251.416 258.281 251.59C258.188 251.675 258.08 251.74 257.962 251.783C257.843 251.826 257.718 251.845 257.593 251.839H249.653V276.716C249.659 276.833 249.641 276.951 249.6 277.061C249.559 277.171 249.496 277.272 249.414 277.357C249.225 277.524 248.978 277.61 248.726 277.596H248.008Z" fill="#F97316"/>
<path d="M279.306 278.007C277.218 278.096 275.147 277.599 273.327 276.572C271.813 275.656 270.612 274.302 269.884 272.688C269.099 270.92 268.673 269.014 268.631 267.081C268.631 265.98 268.631 264.794 268.631 263.531C268.631 262.268 268.631 261.062 268.631 259.905C268.673 257.968 269.099 256.059 269.884 254.288C270.603 252.666 271.806 251.306 273.327 250.394C275.154 249.386 277.222 248.9 279.306 248.988C280.968 248.946 282.623 249.218 284.184 249.791C285.415 250.256 286.533 250.977 287.465 251.906C288.285 252.728 288.935 253.703 289.378 254.776C289.78 255.718 290.019 256.721 290.086 257.742C290.103 257.85 290.091 257.961 290.053 258.063C290.014 258.166 289.95 258.256 289.866 258.326C289.689 258.473 289.464 258.551 289.234 258.546H288.431C288.228 258.547 288.031 258.483 287.867 258.364C287.772 258.279 287.696 258.176 287.641 258.061C287.587 257.946 287.556 257.821 287.551 257.694C287.034 255.302 286.078 253.666 284.681 252.786C283.066 251.84 281.214 251.375 279.344 251.447C278.286 251.393 277.227 251.549 276.229 251.905C275.231 252.261 274.313 252.811 273.528 253.523C272.084 254.91 271.319 257.12 271.204 260.153C271.127 262.367 271.127 264.625 271.204 266.928C271.319 269.961 272.084 272.171 273.528 273.558C275.114 274.962 277.191 275.681 279.306 275.558C281.175 275.633 283.027 275.171 284.643 274.228C286.059 273.338 287.015 271.702 287.513 269.31C287.518 269.183 287.549 269.058 287.603 268.943C287.657 268.828 287.734 268.725 287.828 268.64C287.992 268.521 288.19 268.458 288.393 268.458H289.196C289.427 268.456 289.652 268.538 289.827 268.688C289.912 268.757 289.977 268.848 290.016 268.95C290.055 269.053 290.065 269.164 290.047 269.272C289.981 270.29 289.742 271.29 289.34 272.228C288.894 273.286 288.244 274.245 287.427 275.051C286.495 275.98 285.376 276.7 284.146 277.165C282.601 277.752 280.958 278.037 279.306 278.007Z" fill="#F97316"/>
<path d="M303.85 277.596C303.731 277.602 303.612 277.584 303.5 277.543C303.389 277.502 303.286 277.439 303.2 277.357C303.118 277.272 303.055 277.171 303.014 277.061C302.973 276.951 302.954 276.833 302.961 276.716V250.318C302.946 250.065 303.032 249.818 303.2 249.629C303.286 249.547 303.389 249.483 303.5 249.442C303.612 249.401 303.731 249.383 303.85 249.389H304.568C304.698 249.368 304.832 249.378 304.958 249.418C305.083 249.459 305.198 249.529 305.291 249.622C305.385 249.716 305.455 249.83 305.495 249.956C305.536 250.082 305.546 250.216 305.524 250.346V262.115H321.077V250.346C321.063 250.094 321.149 249.846 321.316 249.657C321.403 249.576 321.505 249.512 321.617 249.471C321.729 249.43 321.848 249.412 321.967 249.418H322.694C322.943 249.406 323.186 249.492 323.373 249.657C323.457 249.75 323.523 249.859 323.566 249.977C323.608 250.095 323.627 250.221 323.622 250.346V276.744C323.626 276.863 323.607 276.981 323.564 277.091C323.521 277.201 323.456 277.301 323.373 277.385C323.186 277.551 322.943 277.636 322.694 277.625H321.967C321.848 277.631 321.729 277.613 321.617 277.572C321.505 277.531 321.403 277.467 321.316 277.385C321.155 277.212 321.069 276.981 321.077 276.744V264.497H305.495V276.716C305.501 276.833 305.483 276.951 305.442 277.061C305.401 277.171 305.338 277.272 305.256 277.357C305.067 277.524 304.82 277.61 304.568 277.596H303.85Z" fill="#F97316"/>
</svg>
