<svg width="197" height="208" viewBox="0 0 197 208" fill="none" xmlns="http://www.w3.org/2001/svg">
<path d="M59.7455 93.9247C62.3016 94.2901 64.8985 93.6228 66.9648 92.0698C69.0312 90.5167 70.3978 88.205 70.764 85.6433C71.1301 83.0816 70.4659 80.4796 68.9173 78.4099C67.3688 76.3401 65.0628 74.9721 62.5067 74.6067C59.9506 74.2413 57.3537 74.9086 55.2874 76.4617C53.221 78.0147 51.8544 80.3264 51.4883 82.8881C51.1221 85.4498 51.7863 88.0518 53.3349 90.1216C54.8834 92.1913 57.1894 93.5593 59.7455 93.9247ZM105.433 116.977C105.067 119.539 103.701 121.85 101.634 123.403C99.568 124.956 96.9711 125.624 94.415 125.258C91.8589 124.893 89.5529 123.525 88.0044 121.455C86.4559 119.385 85.7916 116.783 86.1578 114.222C86.5239 111.66 87.8905 109.348 89.9569 107.795C92.0233 106.242 94.6201 105.575 97.1762 105.94C99.7324 106.306 102.038 107.674 103.587 109.743C105.135 111.813 105.8 114.415 105.433 116.977ZM51.4746 152.157C54.0427 152.525 56.6517 151.854 58.7277 150.294C60.8038 148.733 62.1767 146.411 62.5446 143.837C62.9125 141.264 62.2451 138.649 60.6894 136.57C59.1336 134.49 56.8168 133.116 54.2487 132.749C51.6806 132.382 49.0716 133.052 46.9956 134.613C44.9195 136.173 43.5466 138.495 43.1787 141.069C42.8108 143.643 43.4782 146.257 45.0339 148.336C46.5897 150.416 48.9065 151.79 51.4746 152.157ZM23.9383 22.2713C25.9608 8.12204 39.2125 -2.20699 53.7173 0.78926C110.55 12.5124 158.07 39.0437 192.071 82.3666C201.723 94.6507 197.023 111.793 184.157 119.052C164.125 130.429 143.994 141.63 123.766 152.654L120.553 175.138C119.228 184.403 110.626 193.498 98.4419 191.756C96.2594 191.449 94.141 190.79 92.1688 189.804L92.0155 190.877C90.6986 200.09 82.0929 209.119 69.8828 207.373C60.1611 205.984 54.671 198.646 53.4361 191.178C45.6132 195.466 37.0663 200.125 29.4332 204.282C15.3075 211.98 -1.50197 200.255 0.771661 184.349L23.9383 22.2713ZM94.7786 171.454C94.3002 174.8 96.3693 178.274 100.289 178.834C104.221 179.396 107.183 176.629 107.659 173.295L111.342 147.529C111.488 146.511 111.873 145.541 112.464 144.7C113.055 143.859 113.837 143.169 114.744 142.688C125.846 136.812 144.833 126.221 161.656 116.772C131.669 78.6776 85.8059 52.0666 33.9542 44.2463L13.6651 186.192C13.4978 187.388 13.6648 188.607 14.1477 189.713C14.6306 190.819 15.4103 191.769 16.4001 192.457C17.3899 193.145 18.5511 193.544 19.7543 193.61C20.9575 193.676 22.1556 193.407 23.2153 192.831C34.4318 186.707 47.6585 179.5 57.5964 174.037C58.6571 173.454 59.8587 173.179 61.0665 173.241C62.2743 173.304 63.4406 173.703 64.4347 174.392C65.4288 175.082 66.2115 176.035 66.6951 177.146C67.1786 178.257 67.3439 179.481 67.1724 180.68L66.2415 187.193C65.7871 190.372 67.7825 193.901 71.7279 194.465C72.5697 194.606 73.4314 194.577 74.2619 194.379C75.0925 194.181 75.8751 193.817 76.5633 193.311C77.2515 192.804 77.8314 192.165 78.2687 191.43C78.706 190.695 78.9918 189.88 79.1091 189.032L81.8852 169.611C82.1301 167.897 83.0442 166.351 84.4264 165.312C85.8085 164.273 87.5456 163.827 89.2554 164.071C90.9651 164.316 92.5076 165.231 93.5434 166.615C94.5792 168 95.0235 169.74 94.7786 171.454ZM177.755 107.694C184.41 103.938 186.036 95.784 181.829 90.4226C150.029 49.9198 105.428 24.7815 51.0894 13.5598C44.4568 12.1898 37.8679 16.8652 36.8318 24.1143L35.8011 31.3246C91.5301 39.7254 141.016 68.6079 173.147 110.292L177.755 107.694Z" fill="#FDBA74"/>
</svg>
