<svg width="209" height="242" viewBox="0 0 209 242" fill="none" xmlns="http://www.w3.org/2000/svg">
<path d="M62.3916 51.8207L69.8786 47.4025C78.1956 42.6007 89.0526 45.5098 93.9594 54.3398L94.0947 54.7397C98.1211 61.8793 104.745 66.5632 112.562 69.5064C123.26 73.4637 132.315 82.1931 136.478 94.7027C140.896 108.977 136.419 125.233 125.147 135.182C120.835 139.16 115.679 142.111 110.065 143.814C104.452 145.517 98.5252 145.928 92.73 145.017C86.9348 144.105 81.4208 141.894 76.601 138.55C71.7811 135.206 67.7801 130.815 64.8976 125.705C60.2311 117.788 58.7636 108.789 60.1013 100.177C61.4087 91.679 60.2199 82.9968 55.9976 75.6835C51.1655 67.4796 54.0746 56.6226 62.3916 51.8207ZM85.5271 155.476C72.2951 151.93 61.3315 143.538 54.6861 131.696C48.9514 121.432 46.7026 109.921 48.4283 98.5041C48.9981 95.0204 49.1621 90.337 47.5388 85.5383C38.2379 93.1069 31.1362 103.325 27.8029 115.766C22.8331 134.313 27.4866 153.136 38.6395 167.155L185.322 206.458L188.353 195.149C199.262 154.435 181.475 112.699 147.524 91.4804C153.346 110.011 147.454 131.099 132.98 143.948C120.145 155.66 102.265 159.96 85.5271 155.476ZM169.233 75.6003L183.596 79.4489C193.435 82.0853 200.182 91.287 196.879 103.614L194.637 111.983L208.773 115.771L211.804 104.462C216.349 87.4977 204.762 70.5746 187.233 65.8776L172.87 62.0291C163.483 59.5139 157.938 48.0886 160.484 38.5888C163.029 29.0889 172.938 24.2286 182.324 26.7438L186.082 12.7202C168.666 8.05344 150.884 18.3195 146.218 35.7359C141.551 53.1524 151.817 70.9336 169.233 75.6003ZM53.0032 44.3353C53.9848 43.3862 55.1926 42.4977 56.5135 41.6395L63.9702 37.3344C65.2607 36.5893 66.6038 36.1007 67.9469 35.612L56.334 15.1669C58.7355 12.5376 59.2307 8.42776 57.4396 5.15993C56.2425 3.14949 54.308 1.68568 52.0478 1.08008C49.7877 0.474481 47.3805 0.774928 45.3385 1.91747C43.331 3.07653 42.0242 4.78701 41.3656 6.79239C39.2996 6.36002 37.1649 6.63652 35.1573 7.79559C30.9988 10.1965 29.5443 15.625 31.9149 19.8966C33.8494 23.0817 37.543 24.6775 41.1339 23.9426L53.0032 44.3353ZM219.666 50.6891C226.98 46.4668 232.69 39.633 235.023 30.9248L220.886 27.1369C218.371 36.5237 208.333 42.319 198.946 39.8038L195.189 53.8275C216.224 59.4639 228.13 81.0784 222.493 102.114L215.13 129.596L229.153 133.353L236.517 105.872C239.217 96.0216 239.067 85.6078 236.084 75.8398C233.101 66.0718 227.408 57.3506 219.666 50.6891ZM17.8999 197.962L176.231 240.386C188.785 243.75 201.547 236.382 204.911 223.828L1.34178 169.282C-0.265616 175.281 0.575869 181.673 3.68111 187.051C6.78635 192.43 11.901 196.354 17.8999 197.962Z" fill="#FDBA74"/>
</svg>
